<?xml version="1.0" encoding="UTF-8" standalone="no"?>
<!-- Created with Inkscape (http://www.inkscape.org/) -->

<svg
   width="48"
   height="48"
   viewBox="0 0 12.7 12.7"
   version="1.1"
   id="svg1"
   xml:space="preserve"
   inkscape:version="1.3.2 (091e20ef0f, 2023-11-25)"
   sodipodi:docname="jxctno_logo.svg"
   inkscape:export-filename="jxctno_logo.svg"
   inkscape:export-xdpi="96"
   inkscape:export-ydpi="96"
   xmlns:inkscape="http://www.inkscape.org/namespaces/inkscape"
   xmlns:sodipodi="http://sodipodi.sourceforge.net/DTD/sodipodi-0.dtd"
   xmlns="http://www.w3.org/2000/svg"
   xmlns:svg="http://www.w3.org/2000/svg"><sodipodi:namedview
     id="namedview1"
     pagecolor="#ffffff"
     bordercolor="#000000"
     borderopacity="0.25"
     inkscape:showpageshadow="2"
     inkscape:pageopacity="0.0"
     inkscape:pagecheckerboard="0"
     inkscape:deskcolor="#d1d1d1"
     inkscape:document-units="mm"
     showguides="false"
     inkscape:zoom="21.291667"
     inkscape:cx="24"
     inkscape:cy="21.064579"
     inkscape:window-width="1920"
     inkscape:window-height="1011"
     inkscape:window-x="0"
     inkscape:window-y="0"
     inkscape:window-maximized="1"
     inkscape:current-layer="layer2" /><defs
     id="defs1"><inkscape:path-effect
       effect="fillet_chamfer"
       id="path-effect10"
       is_visible="true"
       lpeversion="1"
       nodesatellites_param="F,0,0,1,0,0,0,1 @ F,0,0,1,0,0,0,1 @ F,0,1,1,0,0.50176472,0,1 @ F,0,1,1,0,0.50176472,0,1"
       radius="0"
       unit="px"
       method="auto"
       mode="F"
       chamfer_steps="1"
       flexible="false"
       use_knot_distance="true"
       apply_no_radius="true"
       apply_with_radius="true"
       only_selected="false"
       hide_knots="false" /><inkscape:path-effect
       effect="fillet_chamfer"
       id="path-effect9"
       is_visible="true"
       lpeversion="1"
       nodesatellites_param="F,0,1,1,0,1.1803736,0,1 @ F,0,1,1,0,1.1803736,0,1 @ F,0,1,1,0,1.1803736,0,1 @ F,0,1,1,0,1.1803736,0,1 @ F,0,0,1,0,1.1803736,0,1 @ F,0,1,1,0,1.1803736,0,1"
       radius="0"
       unit="px"
       method="auto"
       mode="F"
       chamfer_steps="1"
       flexible="false"
       use_knot_distance="true"
       apply_no_radius="true"
       apply_with_radius="true"
       only_selected="false"
       hide_knots="false" /></defs><g
     inkscape:label="Hexagon"
     inkscape:groupmode="layer"
     id="layer1"
     style="display:inline"><path
       id="path9"
       style="fill:#000000;fill-opacity:1;stroke-width:0.264583"
       transform="matrix(0.98835743,0,0,0.99254427,5.9777129,3.3996102)"
       d="m 5.168916,6.919729 -3.77001,2.1766162 a 2.0444671,2.0444671 3.268555e-7 0 1 -2.04446701,0 L -4.415571,6.9197289 A 2.044467,2.044467 60.000001 0 1 -5.4378045,5.1491685 l 1e-7,-4.35323249 a 2.0444671,2.0444671 120 0 1 1.0222335,-1.7705604 l 3.77000994,-2.17661621 a 2.044467,2.044467 2.7010029e-7 0 1 2.04446706,0 l 3.7700099,2.17661625 a 2.0444671,2.0444671 60 0 1 1.0222335,1.77056041 l 0,4.35323254 A 2.044467,2.044467 120 0 1 5.168916,6.919729 Z"
       inkscape:path-effect="#path-effect9"
       inkscape:original-d="M 6.1911495,6.3295422 0.37667251,9.686532 -5.4378045,6.3295421 l 1e-7,-6.71397969 5.81447697,-3.35698981 5.81447693,3.35698986 z" /></g><g
     inkscape:groupmode="layer"
     id="layer2"
     inkscape:label="J."><g
       id="g16"
       style="display:none"
       inkscape:label="Drawing"><path
         id="path13-0"
         style="fill:#d4ca00;stroke-width:0.38874"
         d="m 3.7042094,4.0348931 c 0,-0.4749073 0.3849522,-0.8598595 0.8598595,-0.8598595 0.4749074,0 0.8598596,0.3849522 0.8598596,0.8598595 0,0.4749074 -0.3849522,0.859896 -0.8598595,0.859896 -0.4749073,0 -0.8598596,-0.3849886 -0.8598596,-0.859896 z"
         inkscape:label="1"
         sodipodi:nodetypes="sssss" /><path
         id="path13-0-0"
         style="fill:#d4ca00;stroke-width:0.38874"
         d="M 7.1437498,4.0348959 A 0.85989583,0.85989583 0 0 1 6.283854,4.8947917 0.85989583,0.85989583 0 0 1 5.4239582,4.0348959 0.85989583,0.85989583 0 0 1 6.283854,3.1750001 0.85989583,0.85989583 0 0 1 7.1437498,4.0348959 Z"
         inkscape:label="2" /><path
         id="path13"
         style="fill:#d4ca00;stroke-width:0.38874"
         d="M 8.8635417,4.0348959 A 0.85989583,0.85989583 0 0 1 8.0036459,4.8947917 0.85989583,0.85989583 0 0 1 7.1437501,4.0348959 0.85989583,0.85989583 0 0 1 8.0036459,3.1750001 0.85989583,0.85989583 0 0 1 8.8635417,4.0348959 Z"
         inkscape:label="3" /><path
         id="path13-0-1"
         style="fill:#d4ca00;stroke-width:0.38874"
         d="M 5.4239584,5.7546873 A 0.85989583,0.85989583 0 0 1 4.5640626,6.6145831 0.85989583,0.85989583 0 0 1 3.7041668,5.7546873 0.85989583,0.85989583 0 0 1 4.5640626,4.8947915 0.85989583,0.85989583 0 0 1 5.4239584,5.7546873 Z"
         inkscape:label="4" /><path
         id="path13-0-0-1"
         style="fill:#d4ca00;stroke-width:0.38874"
         d="M 6.283854,6.6145832 A 0.85989583,0.85989583 0 0 1 5.4239581,5.7546873 0.85989583,0.85989583 0 0 1 6.283854,4.8947914 0.85989583,0.85989583 0 0 1 7.1437499,5.7546873 0.85989583,0.85989583 0 0 1 6.283854,6.6145832 Z"
         inkscape:label="5" /><path
         id="path13-7"
         style="fill:#d4ca00;stroke-width:0.38874"
         d="M 8.8635417,5.7546873 A 0.85989583,0.85989583 0 0 1 8.0036459,6.6145831 0.85989583,0.85989583 0 0 1 7.1437501,5.7546873 0.85989583,0.85989583 0 0 1 8.0036459,4.8947915 0.85989583,0.85989583 0 0 1 8.8635417,5.7546873 Z"
         inkscape:label="6" /><path
         id="path13-0-7"
         style="fill:#d4ca00;stroke-width:0.38874"
         d="M 5.4239584,7.4744792 A 0.85989583,0.85989583 0 0 1 4.5640626,8.334375 0.85989583,0.85989583 0 0 1 3.7041668,7.4744792 0.85989583,0.85989583 0 0 1 4.5640626,6.6145834 0.85989583,0.85989583 0 0 1 5.4239584,7.4744792 Z"
         inkscape:label="7" /><path
         id="path13-0-0-3"
         style="fill:#d4ca00;stroke-width:0.38874"
         d="M 7.1437498,7.4744792 A 0.85989583,0.85989583 0 0 1 6.283854,8.334375 0.85989583,0.85989583 0 0 1 5.4239582,7.4744792 0.85989583,0.85989583 0 0 1 6.283854,6.6145834 0.85989583,0.85989583 0 0 1 7.1437498,7.4744792 Z"
         inkscape:label="8" /><path
         id="path13-76"
         style="fill:#d4ca00;stroke-width:0.38874"
         d="m 8.003645,8.3343747 c -0.4749073,0 -0.8598588,-0.3849879 -0.8598588,-0.8598952 0,-0.4749074 0.3849516,-0.8598964 0.8598589,-0.8598964 0.4749074,0 0.8598601,0.384989 0.8598601,0.8598964 10e-8,0.4749074 -0.3849528,0.8598952 -0.8598602,0.8598952 z"
         inkscape:label="9"
         sodipodi:nodetypes="sssss" /><path
         id="path13-0-1-5"
         style="fill:#d4ca00;stroke-width:0.38874"
         d="M 5.4239584,9.1942701 A 0.85989583,0.85989583 0 0 1 4.5640626,10.054166 0.85989583,0.85989583 0 0 1 3.7041668,9.1942701 0.85989583,0.85989583 0 0 1 4.5640626,8.3343743 0.85989583,0.85989583 0 0 1 5.4239584,9.1942701 Z"
         inkscape:label="10" /><path
         id="path13-0-0-1-6"
         style="fill:#d4ca00;stroke-width:0.38874"
         d="M 7.1437498,9.1942701 A 0.85989583,0.85989583 0 0 1 6.283854,10.054166 0.85989583,0.85989583 0 0 1 5.4239582,9.1942701 0.85989583,0.85989583 0 0 1 6.283854,8.3343743 0.85989583,0.85989583 0 0 1 7.1437498,9.1942701 Z"
         inkscape:label="11" /><path
         id="path13-7-6"
         style="fill:#d4ca00;stroke-width:0.38874"
         d="M 8.8635408,9.1942701 A 0.85989583,0.85989583 0 0 1 8.0036449,10.054166 0.85989583,0.85989583 0 0 1 7.1437491,9.1942701 0.85989583,0.85989583 0 0 1 8.0036449,8.3343743 0.85989583,0.85989583 0 0 1 8.8635408,9.1942701 Z"
         inkscape:label="12" /><path
         id="path13-0-0-1-8"
         style="display:none;fill:#ffaaaa;stroke-width:1.16622"
         d="m 8.8635412,7.4744786 c 2e-7,1.4247219 -1.3636108,2.5796874 -2.579687,2.5796874 -1.2160763,0 -2.5796877,-1.1549653 -2.5796875,-2.5796874 10e-8,-1.4247219 1.1549656,-2.5796872 2.5796875,-2.5796869 1.4247217,0 2.5796869,1.1549652 2.579687,2.5796869 z"
         inkscape:label="Big"
         sodipodi:nodetypes="sasss" /></g><path
       id="path13-76-1"
       style="display:inline;fill:#ffffff;fill-opacity:1;stroke-width:0.38874"
       inkscape:label="9"
       d="M 4.5640625 3.175 C 4.3440091 3.1749999 4.1237356 3.2587592 3.9558309 3.4266642 C 3.6200213 3.7624738 3.6200215 4.3073182 3.9558309 4.6431274 L 5.067391 5.7546875 L 3.9558309 6.8662476 C 3.6200215 7.2020568 3.6200213 7.7469012 3.9558309 8.0827108 C 4.2916405 8.4185203 4.8364847 8.41852 5.1722941 8.0827108 L 6.2838542 6.9711507 L 7.3954142 8.0827108 C 7.7312236 8.41852 8.2760679 8.4185203 8.6118774 8.0827108 C 8.947687 7.7469012 8.9476868 7.2020568 8.6118774 6.8662476 L 7.5003174 5.7546875 L 8.6118774 4.6431274 C 8.9476868 4.3073182 8.947687 3.7624738 8.6118774 3.4266642 C 8.4439727 3.2587592 8.2236992 3.1749999 8.0036458 3.175 C 7.7835925 3.1750001 7.5633189 3.2587596 7.3954142 3.4266642 L 6.2838542 4.5382243 L 5.1722941 3.4266642 C 5.0043895 3.2587596 4.7841159 3.1750001 4.5640625 3.175 z " /><path
       id="path30"
       style="display:inline;fill:#387e6e;stroke-width:1.16622;fill-opacity:1"
       d="M 8.0036458 3.175 C 7.5287415 3.175 7.14375 3.5599915 7.14375 4.0348958 L 7.14375 7.4744792 C 7.14375 7.9493845 6.7587595 8.334375 6.2838542 8.334375 C 5.8089485 8.334375 5.4239583 7.8798376 5.4239583 7.4744792 C 5.4239583 7.4482932 5.4219318 7.4218748 5.4182739 7.3954142 A 0.85989583 0.85989583 0 0 0 4.6431274 6.6202677 C 4.6166669 6.6166099 4.5902484 6.6145833 4.5640625 6.6145833 C 4.5358329 6.6145833 4.5073328 6.6171499 4.4787964 6.6207845 A 0.85989583 0.85989583 0 0 0 3.7114014 7.3757772 C 3.7070626 7.4082495 3.7041667 7.4410104 3.7041667 7.4744792 C 3.7041667 8.6823441 4.8684226 10.054167 6.2838542 10.054167 C 7.4999244 10.054167 8.8635419 8.8991936 8.8635417 7.4744792 L 8.8635417 4.0348958 C 8.863542 3.5599915 8.4785507 3.175 8.0036458 3.175 z "
       inkscape:label="j" /></g></svg>
